<svg xmlns="http://www.w3.org/2000/svg" xmlns:xlink="http://www.w3.org/1999/xlink" width="500" zoomAndPan="magnify" viewBox="0 0 375 374.999991" height="500" preserveAspectRatio="xMidYMid meet" version="1.0"><defs><g/><clipPath id="b875a6a6ab"><path d="M 86 150 L 289.5 150 L 289.5 223 L 86 223 Z M 86 150 " clip-rule="nonzero"/></clipPath></defs><rect x="-37.5" width="450" fill="#ffffff" y="-37.499999" height="449.999989" fill-opacity="1"/><rect x="-37.5" width="450" fill="#ffffff" y="-37.499999" height="449.999989" fill-opacity="1"/><g clip-path="url(#b875a6a6ab)"><path fill="#ff5757" d="M 196.832031 221.378906 C 186.144531 226 175.9375 211.363281 170.535156 204.542969 C 164.167969 196.488281 157.476562 187.671875 153.464844 178.171875 C 151.054688 172.449219 150.378906 166.320312 153.316406 160.691406 C 159.160156 149.511719 172.042969 149.011719 182.628906 153.277344 C 183.9375 153.800781 184.503906 154.734375 183.621094 155.992188 C 183.289062 156.46875 182.84375 156.601562 182.300781 156.394531 C 174.675781 153.507812 164.859375 151.878906 158.640625 158.484375 C 152.089844 165.449219 154.210938 173.804688 158.40625 181.429688 C 163.597656 190.875 170.421875 199.660156 177.226562 207.992188 C 180.621094 212.144531 185.058594 217.046875 189.863281 218.742188 C 196.441406 221.070312 203.15625 213.195312 207.183594 208.546875 C 211.703125 203.320312 216.125 197.953125 220.441406 192.4375 C 220.84375 191.925781 221.355469 191.757812 221.984375 191.933594 C 223.445312 192.351562 223.621094 193.261719 222.519531 194.675781 C 218.964844 199.230469 215.339844 203.734375 211.648438 208.183594 C 207.652344 213 202.617188 218.875 196.832031 221.378906 Z M 161.148438 173.351562 C 161.175781 173.082031 161.339844 172.839844 161.574219 172.703125 C 168.941406 168.472656 176.429688 164.496094 184.046875 160.777344 C 191.957031 156.910156 200.535156 153.273438 208.964844 152.613281 C 221.949219 151.589844 231.003906 160.921875 229.253906 173.839844 C 229.082031 175.078125 228.429688 175.566406 227.285156 175.300781 C 226.425781 175.105469 226.058594 174.574219 226.183594 173.703125 C 227.929688 161.152344 218.28125 153.566406 206.460938 155.941406 C 200.003906 157.242188 193.960938 159.5625 188.011719 162.351562 C 179.960938 166.132812 172.074219 170.234375 164.359375 174.65625 C 162.914062 175.480469 160.835938 176.0625 161.148438 173.351562 Z M 235.300781 191.714844 C 222.441406 185.816406 209.601562 178.664062 198.109375 169.9375 C 197.457031 169.4375 197.355469 168.847656 197.8125 168.164062 C 199.003906 166.40625 199.855469 167.484375 200.976562 168.296875 C 226.8125 187.09375 257.699219 198.785156 288.035156 208.324219 C 289.195312 208.691406 289.808594 209.378906 289.222656 210.582031 C 288.929688 211.191406 288.449219 211.441406 287.78125 211.335938 C 287.226562 211.246094 286.644531 211.113281 286.035156 210.925781 C 268.429688 205.5625 251.519531 199.160156 235.300781 191.714844 Z M 87.082031 198.894531 C 85.484375 197.355469 86.601562 196.179688 88.390625 196.132812 C 93.625 196 99 195.308594 104.515625 194.058594 C 118.140625 190.984375 130.996094 186.640625 143.789062 181.691406 C 145.046875 181.203125 145.800781 181.582031 146.054688 182.820312 C 146.304688 184.058594 145.324219 184.347656 144.246094 184.773438 C 135.574219 188.160156 126.777344 191.179688 117.859375 193.835938 C 108.117188 196.738281 98.082031 198.996094 87.871094 199.207031 C 87.574219 199.210938 87.292969 199.097656 87.082031 198.894531 Z M 87.082031 198.894531 " fill-opacity="1" fill-rule="nonzero"/></g><g fill="#545454" fill-opacity="1"><g transform="translate(72.309367, 66.200035)"><g><path d="M 24.296875 -1.546875 C 24.410156 -1.546875 24.5 -1.597656 24.5625 -1.703125 C 24.613281 -1.816406 24.660156 -2.035156 24.703125 -2.359375 C 24.734375 -2.617188 24.753906 -3.015625 24.765625 -3.546875 C 24.773438 -4.078125 24.769531 -4.6875 24.75 -5.375 C 25.082031 -5.070312 25.523438 -4.765625 26.078125 -4.453125 C 26.628906 -4.148438 27.140625 -3.925781 27.609375 -3.78125 C 27.585938 -3.007812 27.539062 -2.257812 27.46875 -1.53125 C 27.394531 -0.8125 27.3125 -0.265625 27.21875 0.109375 C 27.03125 0.816406 26.691406 1.378906 26.203125 1.796875 C 25.753906 2.148438 25.1875 2.328125 24.5 2.328125 L 22.90625 2.328125 C 22.488281 2.328125 22.09375 2.257812 21.71875 2.125 C 21.351562 2 21.039062 1.785156 20.78125 1.484375 C 20.613281 1.273438 20.484375 1.050781 20.390625 0.8125 C 20.296875 0.582031 20.226562 0.273438 20.1875 -0.109375 C 20.144531 -0.503906 20.125 -1.03125 20.125 -1.6875 L 20.125 -5.65625 C 19.71875 -4.125 19.140625 -2.632812 18.390625 -1.1875 C 17.648438 0.257812 16.691406 1.5625 15.515625 2.71875 C 15.265625 2.476562 14.9375 2.203125 14.53125 1.890625 C 14.125 1.578125 13.695312 1.273438 13.25 0.984375 C 12.8125 0.703125 12.414062 0.476562 12.0625 0.3125 C 12.90625 -0.4375 13.625 -1.285156 14.21875 -2.234375 L 11.640625 -1.265625 C 11.535156 -1.929688 11.34375 -2.734375 11.0625 -3.671875 C 10.78125 -4.617188 10.476562 -5.476562 10.15625 -6.25 L 13.328125 -7.34375 C 13.628906 -6.707031 13.910156 -6.019531 14.171875 -5.28125 C 14.429688 -4.539062 14.644531 -3.851562 14.8125 -3.21875 C 15.6875 -4.820312 16.300781 -6.519531 16.65625 -8.3125 C 17.007812 -10.101562 17.222656 -11.796875 17.296875 -13.390625 L 14.734375 -13.390625 L 14.734375 -17.25 L 17.359375 -17.25 L 17.359375 -23.96875 L 21.3125 -23.96875 L 21.3125 -17.25 L 27.21875 -17.25 L 27.21875 -13.390625 L 21.25 -13.390625 C 21.226562 -13.210938 21.21875 -13.035156 21.21875 -12.859375 C 21.21875 -12.679688 21.210938 -12.5 21.203125 -12.3125 L 23.796875 -12.3125 L 23.796875 -2.125 C 23.796875 -2.050781 23.796875 -1.976562 23.796875 -1.90625 C 23.796875 -1.832031 23.804688 -1.773438 23.828125 -1.734375 C 23.878906 -1.609375 23.960938 -1.546875 24.078125 -1.546875 Z M 14.921875 -17.296875 L 1.03125 -17.296875 L 1.03125 -20.96875 L 5.90625 -20.96875 L 5.90625 -23.9375 L 10.046875 -23.9375 L 10.046875 -20.96875 L 14.921875 -20.96875 Z M 23.96875 -17.46875 C 23.78125 -18.125 23.460938 -18.882812 23.015625 -19.75 C 22.566406 -20.625 22.070312 -21.40625 21.53125 -22.09375 L 24.703125 -23.484375 C 25.273438 -22.835938 25.796875 -22.101562 26.265625 -21.28125 C 26.742188 -20.457031 27.097656 -19.71875 27.328125 -19.0625 Z M 10.109375 -7.84375 L 10.109375 -1.28125 C 10.109375 -0.476562 10.019531 0.179688 9.84375 0.703125 C 9.664062 1.222656 9.316406 1.640625 8.796875 1.953125 C 8.273438 2.253906 7.695312 2.4375 7.0625 2.5 C 6.4375 2.570312 5.734375 2.609375 4.953125 2.609375 C 4.898438 2.171875 4.789062 1.675781 4.625 1.125 C 4.457031 0.582031 4.269531 0.078125 4.0625 -0.390625 C 3.925781 -0.0859375 3.78125 0.191406 3.625 0.453125 C 3.46875 0.710938 3.3125 0.960938 3.15625 1.203125 C 2.957031 0.992188 2.675781 0.742188 2.3125 0.453125 C 1.945312 0.171875 1.570312 -0.101562 1.1875 -0.375 C 0.800781 -0.644531 0.472656 -0.863281 0.203125 -1.03125 C 0.703125 -1.78125 1.128906 -2.691406 1.484375 -3.765625 C 1.835938 -4.835938 2.109375 -5.925781 2.296875 -7.03125 L 5.9375 -6.25 C 5.769531 -5.351562 5.546875 -4.457031 5.265625 -3.5625 C 4.984375 -2.664062 4.675781 -1.816406 4.34375 -1.015625 L 5.796875 -1.015625 C 6.078125 -1.015625 6.21875 -1.132812 6.21875 -1.375 L 6.21875 -7.84375 L 2.234375 -7.84375 L 2.234375 -16.09375 L 13.859375 -16.09375 L 13.859375 -7.84375 Z M 5.9375 -11.171875 L 9.90625 -11.171875 L 9.90625 -12.796875 L 5.9375 -12.796875 Z M 5.9375 -11.171875 "/></g></g></g><g fill="#545454" fill-opacity="1"><g transform="translate(100.30555, 66.200035)"><g><path d="M 26.296875 -18.34375 L 26.296875 -11.515625 L 22.171875 -11.515625 L 22.171875 -14.59375 L 5.734375 -14.59375 L 5.734375 -11.515625 L 1.8125 -11.515625 L 1.8125 -18.34375 L 5.515625 -18.34375 C 5.273438 -18.914062 4.945312 -19.523438 4.53125 -20.171875 C 4.125 -20.816406 3.707031 -21.398438 3.28125 -21.921875 L 6.796875 -23.546875 C 7.359375 -22.910156 7.910156 -22.203125 8.453125 -21.421875 C 8.992188 -20.640625 9.378906 -19.921875 9.609375 -19.265625 L 7.609375 -18.34375 L 12.453125 -18.34375 C 12.304688 -18.957031 12.050781 -19.671875 11.6875 -20.484375 C 11.320312 -21.296875 10.9375 -22.046875 10.53125 -22.734375 L 14.171875 -23.96875 C 14.640625 -23.28125 15.085938 -22.523438 15.515625 -21.703125 C 15.941406 -20.878906 16.238281 -20.140625 16.40625 -19.484375 L 13.078125 -18.34375 L 18.53125 -18.34375 L 17.890625 -18.5625 C 18.429688 -19.289062 18.96875 -20.144531 19.5 -21.125 C 20.03125 -22.101562 20.460938 -23.003906 20.796875 -23.828125 L 25.390625 -22.515625 C 24.867188 -21.765625 24.335938 -21.03125 23.796875 -20.3125 C 23.253906 -19.59375 22.742188 -18.9375 22.265625 -18.34375 Z M 24.03125 -10.671875 C 24.03125 -10.671875 24.023438 -10.570312 24.015625 -10.375 C 24.003906 -10.175781 23.992188 -9.953125 23.984375 -9.703125 C 23.972656 -9.453125 23.957031 -9.242188 23.9375 -9.078125 C 23.84375 -6.960938 23.722656 -5.210938 23.578125 -3.828125 C 23.441406 -2.453125 23.265625 -1.367188 23.046875 -0.578125 C 22.835938 0.210938 22.578125 0.796875 22.265625 1.171875 C 21.847656 1.660156 21.40625 2 20.9375 2.1875 C 20.476562 2.375 19.945312 2.503906 19.34375 2.578125 C 18.84375 2.648438 18.203125 2.691406 17.421875 2.703125 C 16.648438 2.710938 15.847656 2.707031 15.015625 2.6875 C 14.972656 2.09375 14.820312 1.410156 14.5625 0.640625 C 14.300781 -0.117188 13.984375 -0.769531 13.609375 -1.3125 C 14.367188 -1.257812 15.113281 -1.222656 15.84375 -1.203125 C 16.570312 -1.179688 17.125 -1.171875 17.5 -1.171875 C 17.757812 -1.171875 17.976562 -1.191406 18.15625 -1.234375 C 18.332031 -1.285156 18.515625 -1.378906 18.703125 -1.515625 C 18.929688 -1.734375 19.125 -2.265625 19.28125 -3.109375 C 19.4375 -3.960938 19.570312 -5.222656 19.6875 -6.890625 L 14.671875 -6.890625 C 14.335938 -5.359375 13.769531 -3.976562 12.96875 -2.75 C 12.164062 -1.53125 11.003906 -0.472656 9.484375 0.421875 C 7.960938 1.316406 5.941406 2.070312 3.421875 2.6875 C 3.285156 2.3125 3.09375 1.890625 2.84375 1.421875 C 2.59375 0.960938 2.304688 0.507812 1.984375 0.0625 C 1.671875 -0.382812 1.363281 -0.757812 1.0625 -1.0625 C 2.96875 -1.457031 4.523438 -1.925781 5.734375 -2.46875 C 6.953125 -3.019531 7.898438 -3.660156 8.578125 -4.390625 C 9.265625 -5.117188 9.773438 -5.953125 10.109375 -6.890625 L 3.609375 -6.890625 L 3.609375 -10.671875 L 10.78125 -10.671875 C 10.820312 -11.191406 10.847656 -11.734375 10.859375 -12.296875 C 10.878906 -12.867188 10.898438 -13.460938 10.921875 -14.078125 L 15.375 -14.078125 C 15.351562 -13.484375 15.328125 -12.898438 15.296875 -12.328125 C 15.273438 -11.765625 15.242188 -11.210938 15.203125 -10.671875 Z M 24.03125 -10.671875 "/></g></g></g><g fill="#545454" fill-opacity="1"><g transform="translate(128.301734, 66.200035)"><g><path d="M 15.0625 -2.234375 L 27.296875 -2.234375 L 27.296875 1.421875 L 15.0625 1.421875 L 15.0625 2.578125 L 11.28125 2.578125 L 11.28125 -2.1875 L 8.734375 -1.375 C 8.703125 -1.96875 8.59375 -2.671875 8.40625 -3.484375 C 8.21875 -4.296875 7.992188 -5.078125 7.734375 -5.828125 L 7.734375 2.65625 L 4.34375 2.65625 L 4.34375 -5.125 C 4.207031 -4.039062 4.019531 -3 3.78125 -2 C 3.550781 -1 3.28125 -0.132812 2.96875 0.59375 C 2.757812 0.4375 2.484375 0.273438 2.140625 0.109375 C 1.796875 -0.0546875 1.445312 -0.21875 1.09375 -0.375 C 0.738281 -0.53125 0.429688 -0.65625 0.171875 -0.75 C 0.546875 -1.570312 0.828125 -2.566406 1.015625 -3.734375 C 1.210938 -4.898438 1.347656 -6.0625 1.421875 -7.21875 L 4.34375 -6.71875 L 4.34375 -8.515625 C 3.738281 -8.472656 3.144531 -8.421875 2.5625 -8.359375 C 1.988281 -8.304688 1.441406 -8.265625 0.921875 -8.234375 L 0.5 -11.703125 C 0.84375 -11.722656 1.203125 -11.738281 1.578125 -11.75 C 1.960938 -11.769531 2.359375 -11.789062 2.765625 -11.8125 C 2.921875 -12.019531 3.070312 -12.226562 3.21875 -12.4375 C 3.363281 -12.65625 3.515625 -12.878906 3.671875 -13.109375 C 3.296875 -13.753906 2.8125 -14.4375 2.21875 -15.15625 C 1.632812 -15.875 1.0625 -16.523438 0.5 -17.109375 L 2.4375 -19.796875 L 2.96875 -19.296875 C 3.320312 -20.054688 3.65625 -20.84375 3.96875 -21.65625 C 4.289062 -22.46875 4.554688 -23.21875 4.765625 -23.90625 L 8.171875 -22.734375 C 7.648438 -21.742188 7.117188 -20.738281 6.578125 -19.71875 C 6.035156 -18.707031 5.523438 -17.8125 5.046875 -17.03125 C 5.140625 -16.894531 5.234375 -16.765625 5.328125 -16.640625 C 5.429688 -16.523438 5.519531 -16.398438 5.59375 -16.265625 C 6.03125 -17.015625 6.429688 -17.753906 6.796875 -18.484375 C 7.160156 -19.210938 7.488281 -19.894531 7.78125 -20.53125 L 10.953125 -19.09375 C 10.441406 -18.289062 9.90625 -17.457031 9.34375 -16.59375 C 8.789062 -15.738281 8.222656 -14.898438 7.640625 -14.078125 L 9.65625 -14.890625 C 9.976562 -14.273438 10.273438 -13.625 10.546875 -12.9375 C 10.828125 -12.25 11.070312 -11.578125 11.28125 -10.921875 L 11.28125 -22.875 L 15.0625 -22.875 L 15.0625 -7.46875 C 15.695312 -8.070312 16.304688 -8.78125 16.890625 -9.59375 C 17.484375 -10.40625 17.984375 -11.210938 18.390625 -12.015625 L 15.546875 -12.015625 L 15.546875 -15.59375 L 19.265625 -15.59375 L 19.265625 -16.6875 L 16.609375 -15.734375 C 16.523438 -16.460938 16.34375 -17.332031 16.0625 -18.34375 C 15.789062 -19.351562 15.484375 -20.265625 15.140625 -21.078125 L 17.96875 -22.0625 C 18.507812 -20.90625 18.941406 -19.710938 19.265625 -18.484375 L 19.265625 -23.375 L 22.796875 -23.375 L 22.796875 -18.0625 C 22.992188 -18.769531 23.179688 -19.5 23.359375 -20.25 C 23.535156 -21.007812 23.671875 -21.707031 23.765625 -22.34375 L 27.21875 -21.28125 C 26.820312 -20.3125 26.4375 -19.332031 26.0625 -18.34375 C 25.695312 -17.351562 25.351562 -16.503906 25.03125 -15.796875 L 22.796875 -16.609375 L 22.796875 -15.59375 L 26.765625 -15.59375 L 26.765625 -12.015625 L 22.796875 -12.015625 L 22.796875 -11.875 C 23.085938 -11.613281 23.457031 -11.269531 23.90625 -10.84375 C 24.351562 -10.425781 24.804688 -9.992188 25.265625 -9.546875 C 25.722656 -9.097656 26.140625 -8.679688 26.515625 -8.296875 C 26.890625 -7.921875 27.160156 -7.644531 27.328125 -7.46875 L 24.953125 -4.375 C 24.703125 -4.820312 24.382812 -5.328125 24 -5.890625 C 23.625 -6.460938 23.222656 -7.035156 22.796875 -7.609375 L 22.796875 -2.578125 L 19.265625 -2.578125 L 19.265625 -7.171875 C 18.847656 -6.421875 18.40625 -5.722656 17.9375 -5.078125 C 17.476562 -4.429688 16.988281 -3.878906 16.46875 -3.421875 C 16.332031 -3.898438 16.128906 -4.445312 15.859375 -5.0625 C 15.585938 -5.675781 15.320312 -6.25 15.0625 -6.78125 Z M 7.75 -12.15625 C 7.675781 -12.375 7.59375 -12.59375 7.5 -12.8125 C 7.40625 -13.039062 7.3125 -13.257812 7.21875 -13.46875 C 7.050781 -13.226562 6.882812 -12.988281 6.71875 -12.75 C 6.550781 -12.519531 6.382812 -12.285156 6.21875 -12.046875 Z M 10.109375 -7.34375 C 10.347656 -6.757812 10.570312 -6.140625 10.78125 -5.484375 C 10.988281 -4.835938 11.15625 -4.210938 11.28125 -3.609375 L 11.28125 -8.375 L 9.046875 -7.421875 C 9.023438 -7.628906 8.988281 -7.859375 8.9375 -8.109375 C 8.894531 -8.359375 8.835938 -8.625 8.765625 -8.90625 L 7.734375 -8.796875 L 7.734375 -6.609375 Z M 10.109375 -7.34375 "/></g></g></g><g fill="#545454" fill-opacity="1"><g transform="translate(156.297917, 66.200035)"><g><path d="M 17.140625 -18.734375 L 11.640625 -18.734375 L 11.640625 -22.015625 L 17.140625 -22.015625 L 17.140625 -23.96875 L 21.171875 -23.96875 L 21.171875 -22.015625 L 26.796875 -22.015625 L 26.796875 -18.734375 L 21.171875 -18.734375 L 21.171875 -17.578125 L 26.046875 -17.578125 L 26.046875 -14.34375 L 12.65625 -14.34375 L 12.65625 -17.578125 L 17.140625 -17.578125 Z M 14.78125 -9.296875 L 18.3125 -9.296875 L 18.3125 -6.75 C 18.3125 -6.019531 18.234375 -5.234375 18.078125 -4.390625 C 17.929688 -3.554688 17.648438 -2.710938 17.234375 -1.859375 C 16.828125 -1.015625 16.226562 -0.203125 15.4375 0.578125 C 14.644531 1.367188 13.601562 2.070312 12.3125 2.6875 C 12.019531 2.28125 11.601562 1.816406 11.0625 1.296875 C 10.519531 0.785156 10.023438 0.351562 9.578125 0 C 11.046875 -0.6875 12.144531 -1.4375 12.875 -2.25 C 13.601562 -3.0625 14.082031 -3.867188 14.3125 -4.671875 C 14.550781 -5.472656 14.671875 -6.203125 14.671875 -6.859375 L 14.671875 -7.5625 L 11.421875 -7.5625 L 11.421875 -8.375 L 9.234375 -7.390625 C 9.222656 -7.617188 9.179688 -7.859375 9.109375 -8.109375 C 9.046875 -8.359375 8.976562 -8.625 8.90625 -8.90625 L 8.03125 -8.8125 L 8.03125 -6.53125 L 10.640625 -7.34375 C 10.953125 -6.570312 11.238281 -5.726562 11.5 -4.8125 C 11.769531 -3.894531 11.941406 -3.113281 12.015625 -2.46875 L 9.046875 -1.484375 C 8.984375 -2.078125 8.863281 -2.78125 8.6875 -3.59375 C 8.507812 -4.40625 8.289062 -5.175781 8.03125 -5.90625 L 8.03125 2.65625 L 4.5625 2.65625 L 4.5625 -5.859375 C 4.4375 -4.640625 4.238281 -3.457031 3.96875 -2.3125 C 3.707031 -1.164062 3.410156 -0.179688 3.078125 0.640625 C 2.859375 0.492188 2.570312 0.332031 2.21875 0.15625 C 1.863281 -0.0195312 1.5 -0.191406 1.125 -0.359375 C 0.75 -0.523438 0.429688 -0.65625 0.171875 -0.75 C 0.546875 -1.570312 0.828125 -2.566406 1.015625 -3.734375 C 1.210938 -4.898438 1.347656 -6.0625 1.421875 -7.21875 L 4.5625 -6.6875 L 4.5625 -8.546875 L 0.921875 -8.234375 L 0.5 -11.703125 L 2.609375 -11.8125 C 2.753906 -12.019531 2.90625 -12.234375 3.0625 -12.453125 C 3.21875 -12.679688 3.382812 -12.90625 3.5625 -13.125 C 3.1875 -13.757812 2.71875 -14.414062 2.15625 -15.09375 C 1.59375 -15.78125 1.039062 -16.40625 0.5 -16.96875 L 2.46875 -19.734375 L 2.96875 -19.265625 C 3.320312 -20.023438 3.65625 -20.816406 3.96875 -21.640625 C 4.289062 -22.460938 4.554688 -23.21875 4.765625 -23.90625 L 8.265625 -22.703125 C 7.734375 -21.710938 7.191406 -20.703125 6.640625 -19.671875 C 6.097656 -18.648438 5.582031 -17.75 5.09375 -16.96875 C 5.1875 -16.851562 5.28125 -16.738281 5.375 -16.625 C 5.46875 -16.519531 5.550781 -16.410156 5.625 -16.296875 C 6.050781 -17.023438 6.460938 -17.753906 6.859375 -18.484375 C 7.265625 -19.210938 7.617188 -19.894531 7.921875 -20.53125 L 11.203125 -19.046875 C 10.660156 -18.222656 10.082031 -17.363281 9.46875 -16.46875 C 8.851562 -15.582031 8.226562 -14.710938 7.59375 -13.859375 L 9.859375 -14.8125 C 10.140625 -14.289062 10.414062 -13.742188 10.6875 -13.171875 C 10.957031 -12.597656 11.203125 -12.035156 11.421875 -11.484375 L 11.421875 -13.4375 L 27.1875 -13.4375 L 27.1875 -7.5625 L 23.65625 -7.5625 L 23.65625 -10.328125 L 14.78125 -10.328125 Z M 7.75 -12.15625 C 7.65625 -12.351562 7.5625 -12.554688 7.46875 -12.765625 C 7.382812 -12.972656 7.296875 -13.171875 7.203125 -13.359375 C 7.023438 -13.128906 6.851562 -12.898438 6.6875 -12.671875 C 6.519531 -12.453125 6.351562 -12.242188 6.1875 -12.046875 Z M 24.078125 -1.03125 C 24.191406 -1.03125 24.28125 -1.109375 24.34375 -1.265625 C 24.40625 -1.429688 24.457031 -1.765625 24.5 -2.265625 C 24.539062 -2.773438 24.566406 -3.539062 24.578125 -4.5625 C 24.929688 -4.257812 25.4375 -3.972656 26.09375 -3.703125 C 26.75 -3.429688 27.316406 -3.234375 27.796875 -3.109375 C 27.710938 -1.691406 27.539062 -0.585938 27.28125 0.203125 C 27.03125 1.003906 26.675781 1.5625 26.21875 1.875 C 25.757812 2.195312 25.175781 2.359375 24.46875 2.359375 L 22.9375 2.359375 C 22.039062 2.359375 21.351562 2.21875 20.875 1.9375 C 20.394531 1.65625 20.070312 1.195312 19.90625 0.5625 C 19.738281 -0.0703125 19.65625 -0.921875 19.65625 -1.984375 L 19.65625 -9.296875 L 23.296875 -9.296875 L 23.296875 -2.015625 C 23.296875 -1.585938 23.3125 -1.316406 23.34375 -1.203125 C 23.382812 -1.085938 23.472656 -1.03125 23.609375 -1.03125 Z M 24.078125 -1.03125 "/></g></g></g><g fill="#545454" fill-opacity="1"><g transform="translate(184.294101, 66.200035)"><g><path d="M 24.140625 -12.40625 C 23.460938 -10.519531 22.597656 -8.832031 21.546875 -7.34375 C 20.503906 -5.863281 19.304688 -4.554688 17.953125 -3.421875 C 20.566406 -2.367188 23.710938 -1.65625 27.390625 -1.28125 C 27.085938 -0.96875 26.769531 -0.570312 26.4375 -0.09375 C 26.113281 0.375 25.800781 0.859375 25.5 1.359375 C 25.207031 1.867188 24.96875 2.320312 24.78125 2.71875 C 20.351562 2.101562 16.691406 0.953125 13.796875 -0.734375 C 12.191406 0.109375 10.46875 0.804688 8.625 1.359375 C 6.78125 1.910156 4.847656 2.34375 2.828125 2.65625 C 2.710938 2.28125 2.53125 1.84375 2.28125 1.34375 C 2.03125 0.851562 1.753906 0.367188 1.453125 -0.109375 C 1.160156 -0.597656 0.878906 -0.988281 0.609375 -1.28125 C 2.390625 -1.488281 4.070312 -1.769531 5.65625 -2.125 C 7.238281 -2.476562 8.722656 -2.925781 10.109375 -3.46875 C 9.304688 -4.238281 8.5625 -5.078125 7.875 -5.984375 C 7.195312 -6.890625 6.5625 -7.863281 5.96875 -8.90625 L 8.9375 -9.90625 L 3.25 -9.90625 L 3.25 -13.890625 L 11.765625 -13.890625 L 11.765625 -16.546875 L 1.8125 -16.546875 L 1.8125 -20.578125 L 11.765625 -20.578125 L 11.765625 -23.9375 L 16.015625 -23.9375 L 16.015625 -20.578125 L 26.046875 -20.578125 L 26.046875 -16.546875 L 16.015625 -16.546875 L 16.015625 -13.890625 L 20.546875 -13.890625 L 21.25 -14.03125 Z M 10 -9.90625 C 11.007812 -8.195312 12.363281 -6.742188 14.0625 -5.546875 C 14.914062 -6.117188 15.695312 -6.769531 16.40625 -7.5 C 17.113281 -8.226562 17.726562 -9.03125 18.25 -9.90625 Z M 10 -9.90625 "/></g></g></g><g fill="#545454" fill-opacity="1"><g transform="translate(212.290284, 66.200035)"><g><path d="M 9.828125 -7.671875 C 9.421875 -7.554688 9.003906 -7.4375 8.578125 -7.3125 C 8.160156 -7.195312 7.738281 -7.082031 7.3125 -6.96875 L 7.3125 -1.515625 C 7.3125 -0.640625 7.222656 0.0664062 7.046875 0.609375 C 6.878906 1.148438 6.554688 1.582031 6.078125 1.90625 C 5.609375 2.21875 5.039062 2.425781 4.375 2.53125 C 3.71875 2.632812 2.921875 2.6875 1.984375 2.6875 C 1.953125 2.1875 1.835938 1.566406 1.640625 0.828125 C 1.441406 0.0859375 1.222656 -0.550781 0.984375 -1.09375 C 1.429688 -1.070312 1.859375 -1.054688 2.265625 -1.046875 C 2.679688 -1.035156 2.972656 -1.039062 3.140625 -1.0625 C 3.304688 -1.0625 3.421875 -1.085938 3.484375 -1.140625 C 3.546875 -1.203125 3.578125 -1.328125 3.578125 -1.515625 L 3.578125 -5.96875 L 1.09375 -5.296875 L 0.53125 -9.234375 C 0.957031 -9.328125 1.429688 -9.429688 1.953125 -9.546875 C 2.484375 -9.660156 3.023438 -9.78125 3.578125 -9.90625 L 3.578125 -15.09375 L 0.953125 -15.09375 L 0.953125 -18.8125 L 3.578125 -18.8125 L 3.578125 -23.90625 L 7.3125 -23.90625 L 7.3125 -18.8125 L 9.546875 -18.8125 L 9.546875 -15.09375 L 7.3125 -15.09375 L 7.3125 -10.8125 L 9.328125 -11.3125 Z M 25.625 -7.609375 C 25.320312 -6.421875 24.925781 -5.34375 24.4375 -4.375 C 23.957031 -3.414062 23.390625 -2.5625 22.734375 -1.8125 C 23.460938 -1.539062 24.238281 -1.304688 25.0625 -1.109375 C 25.882812 -0.910156 26.742188 -0.742188 27.640625 -0.609375 C 27.222656 -0.222656 26.789062 0.296875 26.34375 0.953125 C 25.894531 1.609375 25.539062 2.1875 25.28125 2.6875 C 23.1875 2.28125 21.332031 1.632812 19.71875 0.75 C 19 1.1875 18.226562 1.566406 17.40625 1.890625 C 16.59375 2.210938 15.738281 2.488281 14.84375 2.71875 C 14.675781 2.363281 14.414062 1.921875 14.0625 1.390625 C 13.707031 0.867188 13.359375 0.429688 13.015625 0.078125 C 12.609375 0.523438 12.164062 0.957031 11.6875 1.375 C 11.207031 1.800781 10.679688 2.203125 10.109375 2.578125 C 9.847656 2.085938 9.472656 1.5625 8.984375 1 C 8.503906 0.445312 8.019531 -0.00390625 7.53125 -0.359375 C 8.726562 -1.085938 9.695312 -1.914062 10.4375 -2.84375 C 11.1875 -3.769531 11.765625 -4.757812 12.171875 -5.8125 C 12.585938 -6.863281 12.898438 -7.941406 13.109375 -9.046875 L 9.96875 -9.046875 L 9.96875 -12.296875 L 13.5 -12.296875 L 13.546875 -13.078125 L 10.5 -13.078125 L 10.5 -16.21875 L 11.984375 -16.21875 C 11.867188 -16.625 11.734375 -17.070312 11.578125 -17.5625 C 11.421875 -18.0625 11.265625 -18.515625 11.109375 -18.921875 L 13.578125 -19.59375 C 13.109375 -19.582031 12.632812 -19.570312 12.15625 -19.5625 C 11.6875 -19.550781 11.21875 -19.546875 10.75 -19.546875 C 10.71875 -19.972656 10.609375 -20.472656 10.421875 -21.046875 C 10.242188 -21.628906 10.066406 -22.128906 9.890625 -22.546875 C 11.546875 -22.597656 13.238281 -22.675781 14.96875 -22.78125 C 16.695312 -22.882812 18.351562 -23.023438 19.9375 -23.203125 C 21.519531 -23.378906 22.910156 -23.585938 24.109375 -23.828125 L 26.34375 -20.859375 C 25.84375 -20.765625 25.320312 -20.675781 24.78125 -20.59375 C 24.238281 -20.507812 23.675781 -20.421875 23.09375 -20.328125 L 25.921875 -19.546875 C 25.566406 -18.960938 25.203125 -18.382812 24.828125 -17.8125 C 24.460938 -17.25 24.109375 -16.71875 23.765625 -16.21875 L 26.015625 -16.21875 L 26.015625 -13.078125 L 17.4375 -13.078125 L 17.390625 -12.296875 L 26.875 -12.296875 L 26.875 -9.046875 L 17 -9.046875 L 16.859375 -8.375 L 22.796875 -8.375 L 23.4375 -8.453125 Z M 20.265625 -16.21875 C 20.585938 -16.789062 20.914062 -17.441406 21.25 -18.171875 C 21.582031 -18.898438 21.863281 -19.582031 22.09375 -20.21875 C 21.59375 -20.15625 21.085938 -20.097656 20.578125 -20.046875 C 20.078125 -19.992188 19.566406 -19.945312 19.046875 -19.90625 C 19.191406 -19.382812 19.328125 -18.816406 19.453125 -18.203125 C 19.585938 -17.597656 19.679688 -17.082031 19.734375 -16.65625 L 17.609375 -16.21875 Z M 18.765625 -19.875 C 17.242188 -19.769531 15.726562 -19.6875 14.21875 -19.625 C 14.425781 -19.15625 14.628906 -18.632812 14.828125 -18.0625 C 15.035156 -17.5 15.207031 -17.019531 15.34375 -16.625 L 14 -16.21875 L 16.375 -16.21875 C 16.363281 -16.644531 16.304688 -17.15625 16.203125 -17.75 C 16.097656 -18.34375 16 -18.882812 15.90625 -19.375 Z M 17.328125 -5.484375 C 17.929688 -4.722656 18.679688 -4.035156 19.578125 -3.421875 C 20.191406 -4.015625 20.710938 -4.703125 21.140625 -5.484375 Z M 13.46875 -0.453125 C 14.601562 -0.691406 15.648438 -1.023438 16.609375 -1.453125 C 16.347656 -1.691406 16.09375 -1.941406 15.84375 -2.203125 C 15.601562 -2.472656 15.363281 -2.75 15.125 -3.03125 C 14.894531 -2.582031 14.644531 -2.140625 14.375 -1.703125 C 14.101562 -1.273438 13.800781 -0.859375 13.46875 -0.453125 Z M 13.46875 -0.453125 "/></g></g></g><g fill="#545454" fill-opacity="1"><g transform="translate(240.286467, 66.200035)"><g/></g></g><g fill="#545454" fill-opacity="1"><g transform="translate(246.697596, 66.200035)"><g/></g></g><g fill="#545454" fill-opacity="1"><g transform="translate(274.693768, 66.200035)"><g><path d="M 25.671875 -11.8125 C 25.671875 -10.9375 25.570312 -10.242188 25.375 -9.734375 C 25.1875 -9.234375 24.789062 -8.835938 24.1875 -8.546875 C 23.613281 -8.273438 22.953125 -8.101562 22.203125 -8.03125 C 21.453125 -7.957031 20.59375 -7.921875 19.625 -7.921875 C 19.550781 -8.441406 19.394531 -9.039062 19.15625 -9.71875 C 18.925781 -10.40625 18.679688 -10.992188 18.421875 -11.484375 C 18.960938 -11.460938 19.523438 -11.445312 20.109375 -11.4375 C 20.703125 -11.425781 21.09375 -11.429688 21.28125 -11.453125 C 21.488281 -11.453125 21.628906 -11.476562 21.703125 -11.53125 C 21.773438 -11.59375 21.8125 -11.71875 21.8125 -11.90625 L 21.8125 -23.515625 L 25.671875 -23.515625 Z M 26.625 -1.953125 L 26.625 1.796875 L 1.28125 1.796875 L 1.28125 -1.953125 L 11.78125 -1.953125 L 11.78125 -3.46875 L 4.09375 -3.46875 L 4.09375 -7.140625 L 11.78125 -7.140625 L 11.78125 -8.421875 L 9.796875 -8.421875 L 9.796875 -13.5 L 7.75 -13.5 C 7.507812 -12.351562 7.039062 -11.265625 6.34375 -10.234375 C 5.65625 -9.210938 4.613281 -8.347656 3.21875 -7.640625 C 3.050781 -7.898438 2.800781 -8.210938 2.46875 -8.578125 C 2.144531 -8.941406 1.8125 -9.300781 1.46875 -9.65625 C 1.125 -10.007812 0.832031 -10.28125 0.59375 -10.46875 C 1.5 -10.894531 2.203125 -11.363281 2.703125 -11.875 C 3.210938 -12.394531 3.59375 -12.9375 3.84375 -13.5 L 1.375 -13.5 L 1.375 -17.046875 L 4.34375 -17.046875 L 4.34375 -19.484375 L 2.359375 -19.484375 L 2.359375 -23.015625 L 15.234375 -23.015625 L 15.234375 -19.484375 L 13.578125 -19.484375 L 13.578125 -17.046875 L 15.875 -17.046875 L 15.875 -13.5 L 13.578125 -13.5 L 13.578125 -8.84375 L 15.984375 -8.84375 L 15.984375 -7.140625 L 23.890625 -7.140625 L 23.890625 -3.46875 L 15.984375 -3.46875 L 15.984375 -1.953125 Z M 20.4375 -12.734375 L 16.75 -12.734375 L 16.75 -22.3125 L 20.4375 -22.3125 Z M 9.796875 -17.046875 L 9.796875 -19.484375 L 8.0625 -19.484375 L 8.0625 -17.046875 Z M 9.796875 -17.046875 "/></g></g></g><g fill="#545454" fill-opacity="1"><g transform="translate(245.038553, 70.599634)"><g><path d="M 20.890625 -15.21875 C 20.429688 -15.550781 20.269531 -15.863281 20.40625 -16.15625 C 20.539062 -16.445312 20.660156 -16.632812 20.765625 -16.71875 C 21.484375 -17.40625 22.046875 -18.21875 22.453125 -19.15625 C 22.859375 -20.101562 23.0625 -21.191406 23.0625 -22.421875 C 23.0625 -25.066406 22.304688 -27.066406 20.796875 -28.421875 C 19.296875 -29.773438 17.109375 -30.453125 14.234375 -30.453125 L 3.328125 -30.453125 L 3.328125 -0.953125 L 14.234375 -0.953125 C 16.191406 -0.953125 17.910156 -1.25 19.390625 -1.84375 C 20.867188 -2.445312 22.019531 -3.332031 22.84375 -4.5 C 23.675781 -5.675781 24.09375 -7.132812 24.09375 -8.875 C 24.09375 -10.300781 23.804688 -11.539062 23.234375 -12.59375 C 22.660156 -13.65625 21.878906 -14.53125 20.890625 -15.21875 Z M 22.828125 -16.140625 C 23.847656 -15.242188 24.632812 -14.191406 25.1875 -12.984375 C 25.738281 -11.773438 26.015625 -10.40625 26.015625 -8.875 C 26.015625 -6.707031 25.476562 -4.890625 24.40625 -3.421875 C 23.332031 -1.953125 21.898438 -0.851562 20.109375 -0.125 C 18.328125 0.59375 16.367188 0.953125 14.234375 0.953125 L 2.375 0.953125 C 2.09375 0.953125 1.863281 0.84375 1.6875 0.625 C 1.507812 0.414062 1.421875 0.207031 1.421875 0 L 1.421875 -31.40625 C 1.421875 -31.6875 1.523438 -31.914062 1.734375 -32.09375 C 1.953125 -32.269531 2.164062 -32.359375 2.375 -32.359375 L 14.234375 -32.359375 C 17.492188 -32.359375 20.097656 -31.5 22.046875 -29.78125 C 24.003906 -28.0625 24.984375 -25.609375 24.984375 -22.421875 C 24.984375 -21.171875 24.796875 -20.015625 24.421875 -18.953125 C 24.054688 -17.890625 23.523438 -16.953125 22.828125 -16.140625 Z M 8.953125 -13.234375 C 8.953125 -13.441406 9.039062 -13.648438 9.21875 -13.859375 C 9.394531 -14.078125 9.625 -14.1875 9.90625 -14.1875 L 10.828125 -14.1875 C 11.078125 -14.1875 11.488281 -14.164062 12.0625 -14.125 C 12.632812 -14.09375 13.257812 -14.003906 13.9375 -13.859375 C 14.613281 -13.722656 15.265625 -13.484375 15.890625 -13.140625 C 16.515625 -12.796875 17.03125 -12.316406 17.4375 -11.703125 C 17.84375 -11.085938 18.046875 -10.296875 18.046875 -9.328125 C 18.046875 -8.160156 17.800781 -7.242188 17.3125 -6.578125 C 16.832031 -5.910156 16.210938 -5.429688 15.453125 -5.140625 C 14.691406 -4.847656 13.894531 -4.660156 13.0625 -4.578125 C 12.226562 -4.503906 11.484375 -4.46875 10.828125 -4.46875 L 9.90625 -4.46875 C 9.695312 -4.46875 9.484375 -4.554688 9.265625 -4.734375 C 9.054688 -4.921875 8.953125 -5.15625 8.953125 -5.4375 Z M 10.859375 -12.28125 L 10.859375 -6.390625 C 11.878906 -6.390625 12.785156 -6.445312 13.578125 -6.5625 C 14.367188 -6.675781 14.992188 -6.941406 15.453125 -7.359375 C 15.910156 -7.785156 16.140625 -8.441406 16.140625 -9.328125 C 16.140625 -9.972656 15.953125 -10.488281 15.578125 -10.875 C 15.210938 -11.269531 14.75 -11.570312 14.1875 -11.78125 C 13.625 -11.988281 13.039062 -12.125 12.4375 -12.1875 C 11.84375 -12.25 11.316406 -12.28125 10.859375 -12.28125 Z M 9.90625 -17.09375 C 9.695312 -17.09375 9.484375 -17.179688 9.265625 -17.359375 C 9.054688 -17.546875 8.953125 -17.773438 8.953125 -18.046875 L 8.953125 -25.859375 C 8.953125 -26.054688 9.039062 -26.265625 9.21875 -26.484375 C 9.394531 -26.703125 9.625 -26.8125 9.90625 -26.8125 L 10.828125 -26.8125 C 11.535156 -26.8125 12.253906 -26.765625 12.984375 -26.671875 C 13.710938 -26.585938 14.378906 -26.382812 14.984375 -26.0625 C 15.597656 -25.75 16.085938 -25.265625 16.453125 -24.609375 C 16.828125 -23.960938 17.015625 -23.078125 17.015625 -21.953125 C 17.015625 -20.828125 16.828125 -19.941406 16.453125 -19.296875 C 16.085938 -18.648438 15.597656 -18.164062 14.984375 -17.84375 C 14.378906 -17.519531 13.710938 -17.3125 12.984375 -17.21875 C 12.253906 -17.132812 11.535156 -17.09375 10.828125 -17.09375 Z M 10.859375 -19.015625 C 11.828125 -19.015625 12.625 -19.054688 13.25 -19.140625 C 13.875 -19.234375 14.335938 -19.484375 14.640625 -19.890625 C 14.953125 -20.296875 15.109375 -20.984375 15.109375 -21.953125 C 15.109375 -22.921875 14.953125 -23.609375 14.640625 -24.015625 C 14.335938 -24.429688 13.875 -24.679688 13.25 -24.765625 C 12.625 -24.859375 11.828125 -24.90625 10.859375 -24.90625 Z M 10.859375 -19.015625 "/></g></g></g><g fill="#545454" fill-opacity="1"><g transform="translate(34.192683, 163.677605)"><g><path d="M 17.921875 -37.3125 L 4.625 -31.8125 L 7.921875 -23.859375 C 8.179688 -23.242188 8.1875 -22.640625 7.9375 -22.046875 C 7.6875 -21.460938 7.253906 -21.039062 6.640625 -20.78125 L 0.09375 -18.0625 C -0.519531 -17.8125 -1.125 -17.804688 -1.71875 -18.046875 C -2.3125 -18.296875 -2.738281 -18.726562 -3 -19.34375 L -8.484375 -32.59375 C -8.734375 -33.207031 -8.734375 -33.804688 -8.484375 -34.390625 C -8.234375 -34.984375 -7.800781 -35.40625 -7.1875 -35.65625 L 24.71875 -48.875 C 25.375 -49.144531 25.988281 -49.144531 26.5625 -48.875 C 27.132812 -48.613281 27.578125 -48.101562 27.890625 -47.34375 C 28.210938 -46.582031 28.582031 -45.554688 29 -44.265625 C 29.414062 -42.972656 29.8125 -41.640625 30.1875 -40.265625 C 30.5625 -38.898438 30.847656 -37.734375 31.046875 -36.765625 C 31.753906 -33.179688 32.019531 -29.910156 31.84375 -26.953125 C 31.675781 -23.992188 31.039062 -21.257812 29.9375 -18.75 C 28.84375 -16.25 27.234375 -13.847656 25.109375 -11.546875 C 24.335938 -10.691406 23.5625 -9.925781 22.78125 -9.25 C 22 -8.570312 21.039062 -7.851562 19.90625 -7.09375 C 18.78125 -6.332031 17.304688 -5.390625 15.484375 -4.265625 C 14.691406 -3.773438 14.140625 -3.4375 13.828125 -3.25 C 13.515625 -3.0625 13.238281 -2.921875 13 -2.828125 C 12.476562 -2.609375 11.960938 -2.578125 11.453125 -2.734375 C 10.941406 -2.898438 10.507812 -3.207031 10.15625 -3.65625 L 8.390625 -6.234375 C 8.222656 -6.453125 8.125 -6.601562 8.09375 -6.6875 C 7.8125 -7.351562 7.820312 -7.972656 8.125 -8.546875 C 8.25 -8.828125 8.414062 -9.070312 8.625 -9.28125 C 8.832031 -9.488281 9.210938 -9.773438 9.765625 -10.140625 C 11.660156 -11.578125 13.320312 -13.132812 14.75 -14.8125 C 16.175781 -16.488281 17.3125 -18.21875 18.15625 -20 C 19 -21.789062 19.484375 -23.53125 19.609375 -25.21875 C 19.992188 -28.65625 19.429688 -32.6875 17.921875 -37.3125 Z M 10.3125 -7.609375 L 12.09375 -5.015625 C 22.519531 -10.585938 28.253906 -17.226562 29.296875 -24.9375 C 29.722656 -27.769531 29.625 -31.035156 29 -34.734375 C 28.375 -38.429688 27.242188 -42.421875 25.609375 -46.703125 L -6.296875 -33.484375 L -0.8125 -20.234375 L 5.734375 -22.953125 L 1.546875 -33.09375 L 19.375 -40.484375 C 20.414062 -37.535156 21.160156 -34.890625 21.609375 -32.546875 C 22.054688 -30.203125 22.21875 -28.046875 22.09375 -26.078125 C 21.96875 -24.117188 21.550781 -22.207031 20.84375 -20.34375 C 20.03125 -18.101562 18.71875 -15.878906 16.90625 -13.671875 C 15.09375 -11.472656 12.894531 -9.453125 10.3125 -7.609375 Z M 10.3125 -7.609375 "/></g></g></g><g fill="#545454" fill-opacity="1"><g transform="translate(75.802925, 146.288082)"><g><path d="M 37.734375 -30.578125 L 38.609375 -27.28125 C 38.765625 -26.707031 38.695312 -26.144531 38.40625 -25.59375 C 38.125 -25.039062 37.679688 -24.648438 37.078125 -24.421875 L 2.703125 -13.109375 C 2.703125 -13.109375 2.675781 -13.101562 2.625 -13.09375 C 2.582031 -13.082031 2.515625 -13.082031 2.421875 -13.09375 C 1.804688 -12.957031 1.242188 -13.039062 0.734375 -13.34375 C 0.222656 -13.65625 -0.128906 -14.125 -0.328125 -14.75 L -2.265625 -21.953125 C -2.453125 -22.660156 -2.359375 -23.289062 -1.984375 -23.84375 C -1.828125 -24.125 -1.613281 -24.375 -1.34375 -24.59375 C -1.082031 -24.8125 -0.835938 -24.914062 -0.609375 -24.90625 L -0.46875 -24.9375 L 34.96875 -32.296875 C 35.59375 -32.429688 36.164062 -32.332031 36.6875 -32 C 37.21875 -31.664062 37.566406 -31.191406 37.734375 -30.578125 Z M 35.453125 -29.96875 L 0.015625 -22.5625 L 1.953125 -15.359375 L 36.328125 -26.671875 Z M 35.453125 -29.96875 "/></g></g></g><g fill="#545454" fill-opacity="1"><g transform="translate(119.326821, 134.477961)"><g><path d="M 22.9375 -36.375 L 35.78125 -38.0625 C 36.40625 -38.144531 36.976562 -37.988281 37.5 -37.59375 C 38.03125 -37.195312 38.335938 -36.6875 38.421875 -36.0625 C 38.484375 -35.625 38.472656 -34.921875 38.390625 -33.953125 C 38.304688 -32.992188 38.15625 -31.882812 37.9375 -30.625 C 37.726562 -29.375 37.472656 -28.078125 37.171875 -26.734375 C 36.378906 -23.128906 35.332031 -19.96875 34.03125 -17.25 C 32.738281 -14.539062 31.066406 -12.019531 29.015625 -9.6875 C 26.535156 -6.84375 23.4375 -4.253906 19.71875 -1.921875 C 19.320312 -1.648438 18.960938 -1.429688 18.640625 -1.265625 C 18.328125 -1.097656 17.921875 -0.898438 17.421875 -0.671875 C 16.929688 -0.453125 16.222656 -0.164062 15.296875 0.1875 C 14.378906 0.550781 13.085938 1.050781 11.421875 1.6875 C 10.335938 2.113281 9.613281 2.382812 9.25 2.5 C 8.882812 2.613281 8.53125 2.691406 8.1875 2.734375 C 7.6875 2.804688 7.207031 2.695312 6.75 2.40625 C 6.300781 2.113281 5.984375 1.722656 5.796875 1.234375 L 4.8125 -1.15625 C 4.757812 -1.28125 4.71875 -1.394531 4.6875 -1.5 C 4.65625 -1.601562 4.632812 -1.6875 4.625 -1.75 C 4.550781 -2.3125 4.671875 -2.859375 4.984375 -3.390625 C 5.179688 -3.628906 5.425781 -3.847656 5.71875 -4.046875 C 6.007812 -4.242188 6.601562 -4.578125 7.5 -5.046875 C 9.15625 -5.960938 10.804688 -7.054688 12.453125 -8.328125 C 14.097656 -9.597656 15.601562 -10.925781 16.96875 -12.3125 C 18.332031 -13.695312 19.4375 -15.035156 20.28125 -16.328125 C 21.445312 -18.054688 22.414062 -19.84375 23.1875 -21.6875 C 23.96875 -23.539062 24.679688 -25.816406 25.328125 -28.515625 L 19.609375 -27.765625 C 18.691406 -26.097656 17.828125 -24.664062 17.015625 -23.46875 C 16.210938 -22.28125 15.34375 -21.203125 14.40625 -20.234375 C 13.46875 -19.273438 12.316406 -18.222656 10.953125 -17.078125 C 9.554688 -15.910156 8.519531 -15.109375 7.84375 -14.671875 C 7.164062 -14.234375 6.613281 -13.984375 6.1875 -13.921875 C 5.394531 -13.828125 4.722656 -14.09375 4.171875 -14.71875 L 2.4375 -16.671875 C 2.125 -17.054688 1.9375 -17.476562 1.875 -17.9375 C 1.8125 -18.4375 1.910156 -18.914062 2.171875 -19.375 C 2.222656 -19.476562 2.28125 -19.578125 2.34375 -19.671875 C 2.40625 -19.773438 2.546875 -19.957031 2.765625 -20.21875 C 2.992188 -20.488281 3.363281 -20.953125 3.875 -21.609375 C 5.519531 -23.828125 6.890625 -26.140625 7.984375 -28.546875 C 9.085938 -30.960938 9.953125 -33.597656 10.578125 -36.453125 C 10.796875 -37.597656 10.960938 -38.445312 11.078125 -39 C 11.191406 -39.5625 11.304688 -39.957031 11.421875 -40.1875 C 11.546875 -40.425781 11.675781 -40.632812 11.8125 -40.8125 C 12.113281 -41.300781 12.613281 -41.59375 13.3125 -41.6875 C 13.5 -41.707031 13.644531 -41.707031 13.75 -41.6875 L 21.265625 -41.34375 C 21.816406 -41.320312 22.304688 -41.113281 22.734375 -40.71875 C 23.160156 -40.332031 23.410156 -39.875 23.484375 -39.34375 C 23.546875 -38.875 23.363281 -37.882812 22.9375 -36.375 Z M 36.09375 -35.71875 L 19.5 -33.53125 C 19.75 -34.226562 19.984375 -34.945312 20.203125 -35.6875 C 20.421875 -36.425781 20.738281 -37.523438 21.15625 -38.984375 L 13.625 -39.34375 C 13.144531 -36.894531 12.628906 -34.710938 12.078125 -32.796875 C 11.523438 -30.878906 10.882812 -29.101562 10.15625 -27.46875 C 9.425781 -25.84375 8.578125 -24.289062 7.609375 -22.8125 C 6.640625 -21.332031 5.507812 -19.8125 4.21875 -18.25 L 5.984375 -16.296875 C 8.742188 -18.117188 11.085938 -20.117188 13.015625 -22.296875 C 14.953125 -24.472656 16.644531 -27.023438 18.09375 -29.953125 L 28.21875 -31.296875 C 27.507812 -26.753906 26.304688 -22.710938 24.609375 -19.171875 C 22.921875 -15.640625 20.632812 -12.484375 17.75 -9.703125 C 14.875 -6.921875 11.296875 -4.375 7.015625 -2.0625 L 7.96875 0.375 C 16.84375 -2.25 23.585938 -6.523438 28.203125 -12.453125 C 32.828125 -18.390625 35.457031 -26.144531 36.09375 -35.71875 Z M 36.09375 -35.71875 "/></g></g></g><g fill="#545454" fill-opacity="1"><g transform="translate(164.019807, 128.449268)"><g><path d="M 8 -36.703125 L 37.21875 -36.703125 C 37.851562 -36.703125 38.398438 -36.472656 38.859375 -36.015625 C 39.316406 -35.554688 39.546875 -35.015625 39.546875 -34.390625 C 39.546875 -34.003906 39.425781 -33.367188 39.1875 -32.484375 C 38.945312 -31.609375 38.609375 -30.617188 38.171875 -29.515625 C 37.441406 -27.617188 36.773438 -25.992188 36.171875 -24.640625 C 35.578125 -23.285156 34.945312 -22 34.28125 -20.78125 C 33.625 -19.570312 32.820312 -18.175781 31.875 -16.59375 C 33.039062 -15.9375 34 -15.363281 34.75 -14.875 C 35.507812 -14.382812 36.257812 -13.867188 37 -13.328125 C 37.75 -12.796875 38.644531 -12.101562 39.6875 -11.25 C 41.351562 -9.957031 42.601562 -8.941406 43.4375 -8.203125 C 44.28125 -7.460938 44.84375 -6.867188 45.125 -6.421875 C 45.40625 -5.984375 45.546875 -5.5625 45.546875 -5.15625 C 45.546875 -4.394531 45.242188 -3.765625 44.640625 -3.265625 L 37.796875 2.171875 C 37.347656 2.523438 36.859375 2.703125 36.328125 2.703125 C 35.785156 2.703125 35.328125 2.554688 34.953125 2.265625 C 34.796875 2.140625 34.640625 1.972656 34.484375 1.765625 C 34.328125 1.566406 34.097656 1.207031 33.796875 0.6875 C 33.492188 0.164062 33.023438 -0.628906 32.390625 -1.703125 C 31.953125 -2.460938 31.476562 -3.210938 30.96875 -3.953125 C 30.46875 -4.691406 29.867188 -5.523438 29.171875 -6.453125 C 28.484375 -7.378906 27.601562 -8.492188 26.53125 -9.796875 C 25.113281 -8.304688 23.734375 -7.007812 22.390625 -5.90625 C 21.054688 -4.800781 19.609375 -3.789062 18.046875 -2.875 C 16.484375 -1.96875 14.660156 -1.039062 12.578125 -0.09375 C 8.796875 1.632812 6.445312 2.5 5.53125 2.5 C 4.550781 2.5 3.859375 2.03125 3.453125 1.09375 L 2.171875 -1.703125 C 2.015625 -2.078125 1.9375 -2.410156 1.9375 -2.703125 C 1.9375 -3.390625 2.222656 -3.988281 2.796875 -4.5 C 2.953125 -4.625 3.234375 -4.8125 3.640625 -5.0625 C 4.046875 -5.3125 4.722656 -5.707031 5.671875 -6.25 C 6.742188 -6.8125 7.941406 -7.601562 9.265625 -8.625 C 10.585938 -9.65625 11.910156 -10.800781 13.234375 -12.0625 C 14.566406 -13.320312 15.785156 -14.597656 16.890625 -15.890625 C 18.023438 -17.242188 19 -18.503906 19.8125 -19.671875 C 20.632812 -20.835938 21.4375 -22.125 22.21875 -23.53125 C 23.007812 -24.9375 23.878906 -26.628906 24.828125 -28.609375 L 8 -28.609375 C 7.332031 -28.609375 6.769531 -28.835938 6.3125 -29.296875 C 5.851562 -29.753906 5.625 -30.316406 5.625 -30.984375 L 5.625 -34.34375 C 5.625 -35 5.851562 -35.554688 6.3125 -36.015625 C 6.769531 -36.472656 7.332031 -36.703125 8 -36.703125 Z M 36.328125 0.28125 L 43.1875 -5.109375 C 40.789062 -7.441406 38.375 -9.484375 35.9375 -11.234375 C 33.507812 -12.984375 30.988281 -14.488281 28.375 -15.75 C 32.289062 -21.144531 35.238281 -27.34375 37.21875 -34.34375 L 8 -34.34375 L 8 -30.984375 L 28.328125 -30.984375 C 25.929688 -24.640625 22.707031 -19.078125 18.65625 -14.296875 C 14.601562 -9.523438 9.832031 -5.660156 4.34375 -2.703125 L 5.578125 0.140625 C 8.703125 -0.898438 11.507812 -2.054688 14 -3.328125 C 16.488281 -4.609375 18.757812 -6.078125 20.8125 -7.734375 C 22.863281 -9.390625 24.785156 -11.273438 26.578125 -13.390625 C 28.535156 -11.179688 30.285156 -8.992188 31.828125 -6.828125 C 33.367188 -4.671875 34.867188 -2.300781 36.328125 0.28125 Z M 36.328125 0.28125 "/></g></g></g><g fill="#545454" fill-opacity="1"><g transform="translate(209.11734, 128.305126)"><g><path d="M 46.375 -0.8125 L 40.53125 5.625 C 39.96875 6.21875 39.28125 6.457031 38.46875 6.34375 C 38.15625 6.3125 37.894531 6.25 37.6875 6.15625 C 37.476562 6.0625 37.242188 5.835938 36.984375 5.484375 C 36.734375 5.140625 36.382812 4.59375 35.9375 3.84375 C 35.5 3.101562 34.882812 2.0625 34.09375 0.71875 C 32.738281 -1.71875 31.578125 -3.785156 30.609375 -5.484375 C 29.640625 -7.191406 28.816406 -8.644531 28.140625 -9.84375 C 27.472656 -11.050781 26.90625 -12.101562 26.4375 -13 C 25.96875 -13.90625 25.53125 -14.753906 25.125 -15.546875 C 24.726562 -16.347656 24.328125 -17.210938 23.921875 -18.140625 C 23.523438 -19.078125 23.039062 -20.171875 22.46875 -21.421875 C 21.582031 -20.171875 20.703125 -18.972656 19.828125 -17.828125 C 18.960938 -16.691406 18.003906 -15.488281 16.953125 -14.21875 C 16.148438 -13.269531 15.492188 -12.476562 14.984375 -11.84375 C 14.472656 -11.21875 14.101562 -10.78125 13.875 -10.53125 C 13.257812 -9.65625 12.75 -9.003906 12.34375 -8.578125 C 11.9375 -8.160156 11.582031 -7.890625 11.28125 -7.765625 C 10.988281 -7.648438 10.617188 -7.617188 10.171875 -7.671875 C 9.429688 -7.773438 8.859375 -8.144531 8.453125 -8.78125 L 4.03125 -15.828125 C 3.75 -16.316406 3.644531 -16.835938 3.71875 -17.390625 C 3.757812 -17.734375 3.890625 -18.054688 4.109375 -18.359375 C 4.328125 -18.671875 4.757812 -19.101562 5.40625 -19.65625 C 6.050781 -20.207031 7.046875 -21 8.390625 -22.03125 C 9.273438 -22.71875 10.410156 -23.671875 11.796875 -24.890625 C 13.179688 -26.117188 14.566406 -27.421875 15.953125 -28.796875 C 17.378906 -30.210938 18.535156 -31.265625 19.421875 -31.953125 C 20.304688 -32.648438 21.078125 -33.101562 21.734375 -33.3125 C 22.398438 -33.53125 23.109375 -33.59375 23.859375 -33.5 C 24.984375 -33.351562 26 -32.804688 26.90625 -31.859375 C 27.207031 -31.566406 27.597656 -31.066406 28.078125 -30.359375 C 28.554688 -29.660156 29.125 -28.742188 29.78125 -27.609375 C 30.164062 -26.984375 30.535156 -26.382812 30.890625 -25.8125 C 31.253906 -25.238281 31.695312 -24.578125 32.21875 -23.828125 C 32.738281 -23.078125 33.394531 -22.113281 34.1875 -20.9375 C 34.988281 -19.769531 36.019531 -18.289062 37.28125 -16.5 C 39.363281 -13.46875 40.992188 -11.132812 42.171875 -9.5 C 43.359375 -7.863281 44.3125 -6.632812 45.03125 -5.8125 C 45.914062 -4.769531 46.484375 -4.007812 46.734375 -3.53125 C 46.992188 -3.050781 47.09375 -2.578125 47.03125 -2.109375 C 46.957031 -1.609375 46.738281 -1.175781 46.375 -0.8125 Z M 38.78125 4 L 44.640625 -2.421875 C 43.492188 -3.878906 42.191406 -5.59375 40.734375 -7.5625 C 39.273438 -9.539062 37.773438 -11.625 36.234375 -13.8125 C 34.703125 -16 33.203125 -18.175781 31.734375 -20.34375 C 30.273438 -22.507812 28.953125 -24.53125 27.765625 -26.40625 C 27.003906 -27.675781 26.390625 -28.644531 25.921875 -29.3125 C 25.453125 -29.976562 25.039062 -30.4375 24.6875 -30.6875 C 24.34375 -30.9375 23.953125 -31.085938 23.515625 -31.140625 C 23.117188 -31.191406 22.6875 -31.125 22.21875 -30.9375 C 21.757812 -30.75 21.175781 -30.359375 20.46875 -29.765625 C 19.757812 -29.179688 18.800781 -28.300781 17.59375 -27.125 C 16.644531 -26.195312 15.816406 -25.40625 15.109375 -24.75 C 14.398438 -24.09375 13.664062 -23.429688 12.90625 -22.765625 C 12.15625 -22.097656 11.242188 -21.328125 10.171875 -20.453125 C 9.109375 -19.578125 7.738281 -18.453125 6.0625 -17.078125 L 10.46875 -10.015625 C 10.78125 -10.390625 11.050781 -10.71875 11.28125 -11 C 11.507812 -11.289062 11.769531 -11.613281 12.0625 -11.96875 C 12.5625 -12.59375 13.066406 -13.210938 13.578125 -13.828125 C 14.085938 -14.441406 14.59375 -15.066406 15.09375 -15.703125 C 16.800781 -17.773438 18.410156 -19.859375 19.921875 -21.953125 C 20.609375 -22.878906 21.125 -23.550781 21.46875 -23.96875 C 21.820312 -24.382812 22.101562 -24.648438 22.3125 -24.765625 C 22.53125 -24.878906 22.75 -24.921875 22.96875 -24.890625 C 23.21875 -24.859375 23.421875 -24.738281 23.578125 -24.53125 C 23.734375 -24.332031 23.914062 -23.972656 24.125 -23.453125 C 25.300781 -20.585938 27.070312 -16.9375 29.4375 -12.5 C 31.800781 -8.070312 34.914062 -2.570312 38.78125 4 Z M 41.71875 -30 C 42.351562 -29.914062 42.851562 -29.625 43.21875 -29.125 C 43.582031 -28.632812 43.722656 -28.097656 43.640625 -27.515625 C 43.554688 -26.878906 43.273438 -26.367188 42.796875 -25.984375 C 42.316406 -25.609375 41.757812 -25.460938 41.125 -25.546875 C 40.507812 -25.628906 40.007812 -25.914062 39.625 -26.40625 C 39.25 -26.894531 39.101562 -27.457031 39.1875 -28.09375 C 39.269531 -28.707031 39.554688 -29.195312 40.046875 -29.5625 C 40.546875 -29.9375 41.101562 -30.082031 41.71875 -30 Z M 42.421875 -34.671875 C 43.679688 -34.503906 44.785156 -34.03125 45.734375 -33.25 C 46.679688 -32.476562 47.398438 -31.53125 47.890625 -30.40625 C 48.378906 -29.28125 48.539062 -28.09375 48.375 -26.84375 C 48.207031 -25.5625 47.738281 -24.425781 46.96875 -23.4375 C 46.207031 -22.457031 45.25 -21.722656 44.09375 -21.234375 C 42.945312 -20.753906 41.738281 -20.601562 40.46875 -20.78125 C 39.1875 -20.945312 38.0625 -21.410156 37.09375 -22.171875 C 36.125 -22.929688 35.394531 -23.890625 34.90625 -25.046875 C 34.425781 -26.210938 34.269531 -27.4375 34.4375 -28.71875 C 34.613281 -30 35.085938 -31.113281 35.859375 -32.0625 C 36.640625 -33.007812 37.601562 -33.722656 38.75 -34.203125 C 39.894531 -34.691406 41.117188 -34.847656 42.421875 -34.671875 Z M 41.953125 -32.34375 C 40.703125 -32.507812 39.570312 -32.195312 38.5625 -31.40625 C 37.550781 -30.625 36.960938 -29.609375 36.796875 -28.359375 C 36.628906 -27.078125 36.9375 -25.921875 37.71875 -24.890625 C 38.507812 -23.867188 39.53125 -23.28125 40.78125 -23.125 C 42.050781 -22.945312 43.203125 -23.25 44.234375 -24.03125 C 45.265625 -24.820312 45.863281 -25.859375 46.03125 -27.140625 C 46.195312 -28.421875 45.882812 -29.5625 45.09375 -30.5625 C 44.300781 -31.570312 43.253906 -32.164062 41.953125 -32.34375 Z M 41.953125 -32.34375 "/></g></g></g><g fill="#545454" fill-opacity="1"><g transform="translate(253.847944, 134.048018)"><g><path d="M 47.953125 -7.609375 L 47.078125 -4.3125 C 46.921875 -3.738281 46.578125 -3.285156 46.046875 -2.953125 C 45.523438 -2.617188 44.953125 -2.503906 44.328125 -2.609375 L 8.890625 -10.015625 C 8.890625 -10.015625 8.863281 -10.019531 8.8125 -10.03125 C 8.769531 -10.039062 8.710938 -10.070312 8.640625 -10.125 C 8.046875 -10.320312 7.601562 -10.675781 7.3125 -11.1875 C 7.019531 -11.707031 6.941406 -12.289062 7.078125 -12.9375 L 9.015625 -20.140625 C 9.203125 -20.847656 9.597656 -21.351562 10.203125 -21.65625 C 10.484375 -21.8125 10.789062 -21.914062 11.125 -21.96875 C 11.46875 -22.019531 11.734375 -21.988281 11.921875 -21.875 L 12.0625 -21.84375 L 46.4375 -10.484375 C 47.039062 -10.285156 47.484375 -9.910156 47.765625 -9.359375 C 48.054688 -8.804688 48.117188 -8.222656 47.953125 -7.609375 Z M 45.671875 -8.21875 L 11.296875 -19.53125 L 9.359375 -12.328125 L 44.796875 -4.921875 Z M 45.671875 -8.21875 "/></g></g></g><g fill="#545454" fill-opacity="1"><g transform="translate(297.446422, 145.579688)"><g><path d="M 21.4375 -30.84375 L 48.4375 -19.671875 C 49.019531 -19.421875 49.429688 -19 49.671875 -18.40625 C 49.921875 -17.8125 49.925781 -17.222656 49.6875 -16.640625 C 49.539062 -16.285156 49.1875 -15.742188 48.625 -15.015625 C 48.070312 -14.296875 47.382812 -13.507812 46.5625 -12.65625 C 45.15625 -11.1875 43.914062 -9.941406 42.84375 -8.921875 C 41.78125 -7.898438 40.710938 -6.957031 39.640625 -6.09375 C 38.566406 -5.226562 37.285156 -4.238281 35.796875 -3.125 C 36.617188 -2.082031 37.285156 -1.1875 37.796875 -0.4375 C 38.304688 0.300781 38.800781 1.0625 39.28125 1.84375 C 39.769531 2.625 40.335938 3.609375 40.984375 4.796875 C 42.023438 6.617188 42.789062 8.035156 43.28125 9.046875 C 43.769531 10.054688 44.054688 10.816406 44.140625 11.328125 C 44.234375 11.835938 44.203125 12.28125 44.046875 12.65625 C 43.753906 13.363281 43.238281 13.832031 42.5 14.0625 L 34.09375 16.46875 C 33.539062 16.625 33.019531 16.601562 32.53125 16.40625 C 32.03125 16.195312 31.664062 15.882812 31.4375 15.46875 C 31.332031 15.289062 31.242188 15.078125 31.171875 14.828125 C 31.109375 14.585938 31.035156 14.164062 30.953125 13.5625 C 30.878906 12.96875 30.753906 12.050781 30.578125 10.8125 C 30.460938 9.945312 30.3125 9.078125 30.125 8.203125 C 29.945312 7.328125 29.710938 6.328125 29.421875 5.203125 C 29.140625 4.078125 28.753906 2.710938 28.265625 1.109375 C 26.378906 1.941406 24.609375 2.609375 22.953125 3.109375 C 21.296875 3.617188 19.570312 3.992188 17.78125 4.234375 C 15.988281 4.484375 13.945312 4.644531 11.65625 4.71875 C 7.5 4.875 5 4.773438 4.15625 4.421875 C 3.25 4.046875 2.785156 3.351562 2.765625 2.34375 L 2.65625 -0.75 C 2.65625 -1.15625 2.710938 -1.492188 2.828125 -1.765625 C 3.085938 -2.398438 3.578125 -2.84375 4.296875 -3.09375 C 4.492188 -3.144531 4.828125 -3.207031 5.296875 -3.28125 C 5.765625 -3.363281 6.539062 -3.472656 7.625 -3.609375 C 8.84375 -3.710938 10.253906 -3.984375 11.859375 -4.421875 C 13.472656 -4.859375 15.132812 -5.40625 16.84375 -6.0625 C 18.5625 -6.726562 20.175781 -7.445312 21.6875 -8.21875 C 23.25 -9.039062 24.628906 -9.832031 25.828125 -10.59375 C 27.035156 -11.363281 28.269531 -12.242188 29.53125 -13.234375 C 30.800781 -14.234375 32.253906 -15.46875 33.890625 -16.9375 L 18.34375 -23.375 C 17.726562 -23.632812 17.296875 -24.0625 17.046875 -24.65625 C 16.796875 -25.25 16.800781 -25.851562 17.0625 -26.46875 L 18.34375 -29.578125 C 18.59375 -30.179688 19.015625 -30.609375 19.609375 -30.859375 C 20.210938 -31.109375 20.820312 -31.101562 21.4375 -30.84375 Z M 33.453125 14.171875 L 41.859375 11.8125 C 40.535156 8.738281 39.082031 5.925781 37.5 3.375 C 35.925781 0.832031 34.175781 -1.519531 32.25 -3.6875 C 37.925781 -7.175781 43.019531 -11.78125 47.53125 -17.5 L 20.53125 -28.671875 L 19.25 -25.5625 L 38.03125 -17.78125 C 33.394531 -12.832031 28.289062 -8.925781 22.71875 -6.0625 C 17.144531 -3.207031 11.253906 -1.46875 5.046875 -0.84375 L 5.109375 2.265625 C 8.390625 2.492188 11.425781 2.492188 14.21875 2.265625 C 17.007812 2.046875 19.664062 1.5625 22.1875 0.8125 C 24.71875 0.0703125 27.21875 -0.929688 29.6875 -2.203125 C 30.644531 0.585938 31.421875 3.273438 32.015625 5.859375 C 32.617188 8.453125 33.097656 11.222656 33.453125 14.171875 Z M 33.453125 14.171875 "/></g></g></g><g fill="#545454" fill-opacity="1"><g transform="translate(78.004679, 321.38743)"><g><path d="M 40.296875 -5.84375 C 40.203125 -5.789062 40.082031 -5.738281 39.9375 -5.6875 C 39.59375 -5.539062 39.300781 -5.46875 39.0625 -5.46875 C 37.445312 -5.46875 35.710938 -5.640625 33.859375 -5.984375 C 32.015625 -6.328125 30.535156 -6.742188 29.421875 -7.234375 C 28.054688 -7.816406 27.082031 -8.421875 26.5 -9.046875 C 25.914062 -9.679688 25.625 -10.390625 25.625 -11.171875 C 25.625 -11.992188 25.953125 -12.632812 26.609375 -13.09375 C 27.265625 -13.5625 28.148438 -13.796875 29.265625 -13.796875 C 31.359375 -13.796875 33.316406 -13.195312 35.140625 -12 C 36.972656 -10.8125 38.5 -9.125 39.71875 -6.9375 C 39.8125 -6.789062 39.878906 -6.664062 39.921875 -6.5625 C 39.972656 -6.46875 40.097656 -6.226562 40.296875 -5.84375 Z M 55.765625 -46.640625 L 44.671875 -37.15625 C 47.015625 -36.914062 48.972656 -36.632812 50.546875 -36.3125 C 52.128906 -36 53.550781 -35.585938 54.8125 -35.078125 C 56.082031 -34.566406 57.375 -33.894531 58.6875 -33.0625 C 61.414062 -31.414062 63.507812 -29.265625 64.96875 -26.609375 C 66.425781 -23.953125 67.15625 -21.066406 67.15625 -17.953125 C 67.15625 -14.691406 66.4375 -11.660156 65 -8.859375 C 63.570312 -6.066406 61.554688 -3.625 58.953125 -1.53125 C 56.347656 0.5625 53.304688 2.191406 49.828125 3.359375 C 46.347656 4.523438 42.585938 5.109375 38.546875 5.109375 C 35.960938 5.109375 33.429688 4.828125 30.953125 4.265625 C 28.472656 3.710938 26.207031 2.9375 24.15625 1.9375 C 22.113281 0.9375 20.4375 -0.242188 19.125 -1.609375 C 16.644531 -4.085938 15.40625 -7.078125 15.40625 -10.578125 C 15.40625 -10.972656 15.414062 -11.316406 15.4375 -11.609375 C 15.457031 -11.898438 15.492188 -12.265625 15.546875 -12.703125 C 15.304688 -12.648438 15.113281 -12.613281 14.96875 -12.59375 C 14.820312 -12.570312 14.648438 -12.5625 14.453125 -12.5625 C 13.285156 -12.5625 12.335938 -13 11.609375 -13.875 L 5.765625 -21.171875 C 5.234375 -21.847656 4.96875 -22.625 4.96875 -23.5 C 4.96875 -24.570312 5.40625 -25.5 6.28125 -26.28125 L 29.640625 -45.546875 C 28.710938 -45.503906 28.003906 -45.484375 27.515625 -45.484375 C 27.035156 -45.484375 26.550781 -45.484375 26.0625 -45.484375 C 23.382812 -45.484375 21.179688 -45.519531 19.453125 -45.59375 C 17.722656 -45.664062 16.664062 -45.773438 16.28125 -45.921875 C 14.769531 -46.503906 13.96875 -47.597656 13.875 -49.203125 L 13.71875 -54.53125 C 13.675781 -55.644531 14.03125 -56.554688 14.78125 -57.265625 C 15.53125 -57.972656 16.515625 -58.328125 17.734375 -58.328125 C 18.421875 -58.328125 19.3125 -58.3125 20.40625 -58.28125 C 21.5 -58.257812 22.703125 -58.203125 24.015625 -58.109375 C 24.847656 -58.054688 25.484375 -58.019531 25.921875 -58 C 26.359375 -57.976562 26.742188 -57.96875 27.078125 -57.96875 C 27.472656 -57.96875 28.21875 -57.976562 29.3125 -58 C 30.40625 -58.019531 31.644531 -58.054688 33.03125 -58.109375 C 34.414062 -58.160156 35.789062 -58.195312 37.15625 -58.21875 C 38.519531 -58.238281 39.675781 -58.273438 40.625 -58.328125 C 41.570312 -58.378906 42.144531 -58.40625 42.34375 -58.40625 C 44.238281 -58.644531 45.816406 -58.8125 47.078125 -58.90625 C 48.347656 -59.007812 49.082031 -59.0625 49.28125 -59.0625 C 50.445312 -59.0625 51.414062 -58.523438 52.1875 -57.453125 L 56.359375 -51.53125 C 56.847656 -50.90625 57.09375 -50.203125 57.09375 -49.421875 C 57.09375 -48.296875 56.648438 -47.367188 55.765625 -46.640625 Z M 31.25 -23.21875 C 34.507812 -22.875 37.523438 -21.882812 40.296875 -20.25 C 43.066406 -18.625 45.378906 -16.445312 47.234375 -13.71875 C 48.304688 -15.28125 48.84375 -16.863281 48.84375 -18.46875 C 48.84375 -19.726562 48.679688 -20.722656 48.359375 -21.453125 C 48.046875 -22.191406 47.5 -22.800781 46.71875 -23.28125 C 45.164062 -24.300781 43.050781 -24.8125 40.375 -24.8125 C 38.863281 -24.8125 37.4375 -24.703125 36.09375 -24.484375 C 34.757812 -24.265625 33.144531 -23.84375 31.25 -23.21875 Z M 33.5 -32.40625 L 53.359375 -49.421875 L 49.203125 -55.40625 C 47.203125 -55.207031 45 -55.023438 42.59375 -54.859375 C 40.1875 -54.691406 37.773438 -54.554688 35.359375 -54.453125 C 32.953125 -54.359375 30.679688 -54.3125 28.546875 -54.3125 C 27.566406 -54.3125 26.296875 -54.332031 24.734375 -54.375 C 23.179688 -54.425781 20.726562 -54.503906 17.375 -54.609375 L 17.515625 -49.34375 C 18.972656 -49.300781 20.175781 -49.253906 21.125 -49.203125 C 22.082031 -49.148438 23.238281 -49.125 24.59375 -49.125 C 26.15625 -49.125 27.691406 -49.148438 29.203125 -49.203125 C 30.710938 -49.253906 32.363281 -49.328125 34.15625 -49.421875 C 35.957031 -49.515625 38.078125 -49.632812 40.515625 -49.78125 L 8.609375 -23.4375 L 14.453125 -16.203125 L 24.09375 -24.375 C 27.644531 -25.882812 30.632812 -26.941406 33.0625 -27.546875 C 35.5 -28.160156 37.910156 -28.46875 40.296875 -28.46875 C 42.285156 -28.46875 44.109375 -28.210938 45.765625 -27.703125 C 47.421875 -27.191406 48.757812 -26.453125 49.78125 -25.484375 C 51.582031 -23.867188 52.484375 -21.578125 52.484375 -18.609375 C 52.484375 -15.453125 51.4375 -12.753906 49.34375 -10.515625 C 49.007812 -10.117188 48.609375 -9.738281 48.140625 -9.375 C 47.679688 -9.007812 47.0625 -8.5625 46.28125 -8.03125 C 45.351562 -9.976562 44.460938 -11.5 43.609375 -12.59375 C 42.765625 -13.6875 41.707031 -14.71875 40.4375 -15.6875 C 38.925781 -16.957031 37.195312 -17.929688 35.25 -18.609375 C 33.3125 -19.296875 31.414062 -19.640625 29.5625 -19.640625 C 26.445312 -19.640625 23.914062 -18.8125 21.96875 -17.15625 C 20.019531 -15.5 19.046875 -13.304688 19.046875 -10.578125 C 19.046875 -7.660156 20.265625 -5.226562 22.703125 -3.28125 C 24.410156 -1.875 26.734375 -0.734375 29.671875 0.140625 C 32.617188 1.015625 35.597656 1.453125 38.609375 1.453125 C 43.335938 1.453125 47.570312 0.601562 51.3125 -1.09375 C 55.0625 -2.800781 58.03125 -5.125 60.21875 -8.0625 C 62.414062 -11.007812 63.515625 -14.332031 63.515625 -18.03125 C 63.515625 -20.46875 62.914062 -22.753906 61.71875 -24.890625 C 60.53125 -27.035156 58.910156 -28.71875 56.859375 -29.9375 C 54.867188 -31.101562 52.617188 -32 50.109375 -32.625 C 47.609375 -33.257812 44.96875 -33.578125 42.1875 -33.578125 C 40.726562 -33.578125 39.378906 -33.488281 38.140625 -33.3125 C 36.898438 -33.144531 35.351562 -32.84375 33.5 -32.40625 Z M 33.5 -32.40625 "/></g></g></g><g fill="#545454" fill-opacity="1"><g transform="translate(151.000814, 321.38743)"><g><path d="M 23.0625 3.140625 L 22.1875 -1.390625 C 22.144531 -1.535156 22.125 -1.773438 22.125 -2.109375 C 22.125 -3.234375 22.507812 -4.132812 23.28125 -4.8125 C 23.675781 -5.15625 24.054688 -5.398438 24.421875 -5.546875 C 24.785156 -5.691406 25.523438 -5.882812 26.640625 -6.125 C 28.785156 -6.664062 30.851562 -7.445312 32.84375 -8.46875 C 34.84375 -9.488281 36.617188 -10.691406 38.171875 -12.078125 C 39.734375 -13.460938 40.90625 -14.890625 41.6875 -16.359375 C 42.21875 -17.328125 42.613281 -18.441406 42.875 -19.703125 C 43.144531 -20.972656 43.378906 -22.675781 43.578125 -24.8125 C 43.679688 -25.644531 43.742188 -26.484375 43.765625 -27.328125 C 43.785156 -28.179688 43.796875 -28.925781 43.796875 -29.5625 L 43.734375 -33.21875 L 43.4375 -56.9375 C 43.382812 -57.957031 43.722656 -58.832031 44.453125 -59.5625 C 45.179688 -60.289062 46.054688 -60.65625 47.078125 -60.65625 L 57.890625 -60.65625 C 58.910156 -60.65625 59.769531 -60.300781 60.46875 -59.59375 C 61.175781 -58.894531 61.53125 -58.035156 61.53125 -57.015625 L 61.609375 -34.15625 C 61.609375 -31.925781 61.609375 -30.1875 61.609375 -28.9375 C 61.609375 -27.695312 61.59375 -26.722656 61.5625 -26.015625 C 61.539062 -25.316406 61.519531 -24.695312 61.5 -24.15625 C 61.476562 -23.625 61.414062 -22.992188 61.3125 -22.265625 C 60.6875 -16.234375 59.070312 -11.316406 56.46875 -7.515625 C 53.863281 -3.722656 49.957031 -0.585938 44.75 1.890625 C 42.894531 2.773438 40.921875 3.492188 38.828125 4.046875 C 36.742188 4.609375 34.117188 5.132812 30.953125 5.625 C 29.878906 5.769531 29.023438 5.878906 28.390625 5.953125 C 27.765625 6.023438 27.234375 6.0625 26.796875 6.0625 C 25.867188 6.0625 25.0625 5.789062 24.375 5.25 C 23.695312 4.71875 23.257812 4.015625 23.0625 3.140625 Z M 25.765625 -2.109375 L 26.640625 2.40625 C 33.015625 1.96875 38.535156 0.679688 43.203125 -1.453125 C 47.878906 -3.597656 51.363281 -6.445312 53.65625 -10 C 54.875 -11.945312 55.796875 -13.929688 56.421875 -15.953125 C 57.054688 -17.972656 57.484375 -20.40625 57.703125 -23.25 C 57.921875 -26.09375 58.007812 -29.726562 57.96875 -34.15625 L 57.890625 -57.015625 L 47.078125 -57.015625 L 47.375 -33.28125 L 47.453125 -29.484375 C 47.453125 -27.546875 47.34375 -25.503906 47.125 -23.359375 C 46.90625 -21.210938 46.625 -19.484375 46.28125 -18.171875 C 45.3125 -14.429688 43.0625 -11.171875 39.53125 -8.390625 C 36 -5.617188 31.410156 -3.523438 25.765625 -2.109375 Z M 15.546875 -58.84375 L 26.28125 -57.8125 C 27.207031 -57.769531 27.984375 -57.394531 28.609375 -56.6875 C 29.242188 -55.976562 29.5625 -55.1875 29.5625 -54.3125 C 29.5625 -53.039062 29.296875 -50.800781 28.765625 -47.59375 C 28.617188 -46.664062 28.492188 -45.703125 28.390625 -44.703125 C 28.296875 -43.710938 28.222656 -42.460938 28.171875 -40.953125 C 28.128906 -39.441406 28.054688 -37.445312 27.953125 -34.96875 C 28.390625 -36.082031 28.898438 -36.882812 29.484375 -37.375 C 30.078125 -37.863281 30.8125 -38.109375 31.6875 -38.109375 C 31.875 -38.109375 32.050781 -38.09375 32.21875 -38.0625 C 32.394531 -38.039062 32.582031 -38.003906 32.78125 -37.953125 L 37.015625 -36.640625 C 38.765625 -36.109375 39.640625 -34.96875 39.640625 -33.21875 C 39.640625 -32.675781 39.503906 -31.84375 39.234375 -30.71875 C 38.972656 -29.601562 38.617188 -28.363281 38.171875 -27 C 37.734375 -25.644531 37.25 -24.332031 36.71875 -23.0625 C 35.988281 -21.257812 35.050781 -19.566406 33.90625 -17.984375 C 32.757812 -16.410156 31.554688 -15.132812 30.296875 -14.15625 C 28.109375 -12.457031 25.625 -11.609375 22.84375 -11.609375 C 20.707031 -11.609375 18.785156 -12.117188 17.078125 -13.140625 C 15.378906 -14.160156 14.039062 -15.617188 13.0625 -17.515625 C 11.257812 -21.066406 10.359375 -26.375 10.359375 -33.4375 C 10.359375 -34.550781 10.394531 -36.007812 10.46875 -37.8125 C 10.539062 -39.613281 10.625 -41.523438 10.71875 -43.546875 C 10.820312 -45.566406 10.929688 -47.5 11.046875 -49.34375 C 11.171875 -51.195312 11.296875 -52.765625 11.421875 -54.046875 C 11.546875 -55.335938 11.65625 -56.109375 11.75 -56.359375 C 12 -57.140625 12.472656 -57.785156 13.171875 -58.296875 C 13.878906 -58.804688 14.570312 -59.007812 15.25 -58.90625 Z M 25.921875 -54.171875 L 15.1875 -55.1875 C 14.789062 -49.738281 14.492188 -45.273438 14.296875 -41.796875 C 14.109375 -38.316406 14.015625 -35.359375 14.015625 -32.921875 C 14.015625 -26.890625 14.734375 -22.4375 16.171875 -19.5625 C 17.609375 -16.6875 19.8125 -15.25 22.78125 -15.25 C 26.476562 -15.25 29.640625 -17.585938 32.265625 -22.265625 C 33.085938 -23.773438 33.789062 -25.367188 34.375 -27.046875 C 34.96875 -28.722656 35.503906 -30.753906 35.984375 -33.140625 L 31.6875 -34.453125 C 30.46875 -30.660156 29.421875 -27.898438 28.546875 -26.171875 C 27.671875 -24.441406 26.890625 -23.578125 26.203125 -23.578125 C 25.617188 -23.578125 25.144531 -24.304688 24.78125 -25.765625 C 24.414062 -27.222656 24.234375 -29.195312 24.234375 -31.6875 C 24.234375 -34.113281 24.28125 -36.445312 24.375 -38.6875 C 24.476562 -40.925781 24.660156 -43.285156 24.921875 -45.765625 C 25.191406 -48.253906 25.523438 -51.054688 25.921875 -54.171875 Z M 25.921875 -54.171875 "/></g></g></g><g fill="#545454" fill-opacity="1"><g transform="translate(223.996949, 321.38743)"><g><path d="M 30.734375 -46.9375 L 33.140625 -47.015625 C 31.441406 -47.742188 29.664062 -48.398438 27.8125 -48.984375 C 25.957031 -49.566406 24.425781 -49.957031 23.21875 -50.15625 C 22.050781 -50.394531 21.257812 -50.597656 20.84375 -50.765625 C 20.425781 -50.941406 20.023438 -51.222656 19.640625 -51.609375 C 19.003906 -52.335938 18.6875 -53.164062 18.6875 -54.09375 C 18.6875 -54.4375 18.710938 -54.679688 18.765625 -54.828125 L 19.484375 -58.40625 C 19.773438 -59.863281 20.675781 -60.785156 22.1875 -61.171875 C 22.476562 -61.265625 23.109375 -61.335938 24.078125 -61.390625 C 25.054688 -61.441406 26.164062 -61.488281 27.40625 -61.53125 C 28.644531 -61.582031 29.851562 -61.609375 31.03125 -61.609375 C 33.21875 -61.609375 35.488281 -61.484375 37.84375 -61.234375 C 40.207031 -60.992188 42.4375 -60.65625 44.53125 -60.21875 C 46.625 -59.78125 48.300781 -59.296875 49.5625 -58.765625 C 51.164062 -58.085938 51.96875 -56.941406 51.96875 -55.328125 C 51.96875 -54.703125 51.773438 -54.046875 51.390625 -53.359375 L 48.03125 -47.890625 C 48.71875 -47.984375 49.253906 -48.03125 49.640625 -48.03125 C 50.023438 -48.03125 50.460938 -48.03125 50.953125 -48.03125 C 52.847656 -48.03125 54.066406 -47.179688 54.609375 -45.484375 L 55.984375 -40.875 C 56.128906 -40.4375 56.203125 -40.070312 56.203125 -39.78125 C 56.203125 -38.90625 55.863281 -38.054688 55.1875 -37.234375 L 46.640625 -28.328125 C 48.546875 -27.398438 49.882812 -26.226562 50.65625 -24.8125 C 51.4375 -23.40625 51.800781 -21.460938 51.75 -18.984375 L 51.75 -12.265625 C 52.238281 -12.210938 52.628906 -12.1875 52.921875 -12.1875 C 53.210938 -12.1875 53.457031 -12.1875 53.65625 -12.1875 C 53.945312 -12.1875 54.53125 -12.234375 55.40625 -12.328125 C 56.28125 -12.429688 57.253906 -12.539062 58.328125 -12.65625 C 59.398438 -12.78125 60.394531 -12.90625 61.3125 -13.03125 C 62.238281 -13.15625 62.921875 -13.265625 63.359375 -13.359375 C 64.335938 -13.597656 64.9375 -13.726562 65.15625 -13.75 C 65.375 -13.78125 65.601562 -13.796875 65.84375 -13.796875 C 66.820312 -13.796875 67.660156 -13.429688 68.359375 -12.703125 C 69.066406 -11.972656 69.421875 -11.117188 69.421875 -10.140625 L 69.421875 0.578125 C 69.421875 1.503906 69.140625 2.296875 68.578125 2.953125 C 68.023438 3.609375 67.257812 4.035156 66.28125 4.234375 C 65.40625 4.378906 64.25 4.507812 62.8125 4.625 C 61.375 4.75 59.890625 4.859375 58.359375 4.953125 C 56.828125 5.054688 55.429688 5.109375 54.171875 5.109375 C 50.910156 5.109375 48.21875 4.9375 46.09375 4.59375 C 43.976562 4.257812 42.164062 3.703125 40.65625 2.921875 C 38.8125 1.941406 37.363281 0.359375 36.3125 -1.828125 C 35.269531 -4.015625 34.75 -6.566406 34.75 -9.484375 L 34.75 -15.90625 L 17.59375 2.046875 C 16.769531 2.773438 15.867188 3.140625 14.890625 3.140625 C 14.015625 3.140625 13.210938 2.820312 12.484375 2.1875 L 5.6875 -3.9375 C 4.914062 -4.625 4.53125 -5.523438 4.53125 -6.640625 C 4.53125 -7.660156 4.867188 -8.515625 5.546875 -9.203125 L 30.65625 -34.53125 C 29.101562 -34.476562 27.289062 -34.425781 25.21875 -34.375 C 23.15625 -34.332031 21.195312 -34.285156 19.34375 -34.234375 C 17.5 -34.179688 16.039062 -34.15625 14.96875 -34.15625 C 11.945312 -34.15625 10.363281 -35.300781 10.21875 -37.59375 L 9.859375 -42.5625 C 9.859375 -43.675781 10.171875 -44.578125 10.796875 -45.265625 C 11.242188 -45.703125 11.6875 -46.003906 12.125 -46.171875 C 12.5625 -46.335938 13.300781 -46.445312 14.34375 -46.5 C 15.382812 -46.550781 17.023438 -46.578125 19.265625 -46.578125 C 20.441406 -46.578125 21.90625 -46.597656 23.65625 -46.640625 C 25.40625 -46.691406 27.765625 -46.789062 30.734375 -46.9375 Z M 39.5 -26.203125 L 52.484375 -39.78125 L 51.09375 -44.390625 C 46.957031 -44.097656 43.304688 -43.863281 40.140625 -43.6875 C 36.984375 -43.519531 34.03125 -43.375 31.28125 -43.25 C 28.53125 -43.125 25.742188 -43.023438 22.921875 -42.953125 C 20.097656 -42.878906 16.957031 -42.820312 13.5 -42.78125 L 13.875 -37.890625 C 17.03125 -37.890625 19.910156 -37.910156 22.515625 -37.953125 C 25.117188 -38.003906 27.785156 -38.085938 30.515625 -38.203125 C 33.242188 -38.328125 36.382812 -38.488281 39.9375 -38.6875 L 8.171875 -6.640625 L 14.890625 -0.515625 L 34.53125 -21.03125 C 35.3125 -21.320312 36.066406 -21.46875 36.796875 -21.46875 C 37.421875 -21.46875 37.84375 -21.269531 38.0625 -20.875 C 38.28125 -20.488281 38.390625 -19.734375 38.390625 -18.609375 L 38.390625 -9.484375 C 38.390625 -7.242188 38.742188 -5.320312 39.453125 -3.71875 C 40.160156 -2.113281 41.125 -0.972656 42.34375 -0.296875 C 44.53125 0.867188 48.472656 1.453125 54.171875 1.453125 C 56.066406 1.453125 57.953125 1.378906 59.828125 1.234375 C 61.703125 1.085938 63.679688 0.867188 65.765625 0.578125 L 65.765625 -10.140625 C 61.242188 -9.117188 56.644531 -8.609375 51.96875 -8.609375 C 50.5625 -8.609375 49.566406 -8.863281 48.984375 -9.375 C 48.398438 -9.882812 48.109375 -10.75 48.109375 -11.96875 L 48.109375 -18.984375 C 48.253906 -21.410156 47.679688 -23.171875 46.390625 -24.265625 C 45.097656 -25.367188 42.800781 -26.015625 39.5 -26.203125 Z M 23.0625 -57.671875 L 22.34375 -54.09375 C 25.988281 -53.363281 29.425781 -52.390625 32.65625 -51.171875 C 35.894531 -49.953125 39.269531 -48.367188 42.78125 -46.421875 L 48.328125 -55.328125 C 43.410156 -57.085938 37.351562 -57.96875 30.15625 -57.96875 C 28.9375 -57.96875 27.835938 -57.941406 26.859375 -57.890625 C 25.890625 -57.835938 24.625 -57.765625 23.0625 -57.671875 Z M 23.0625 -57.671875 "/></g></g></g></svg>